<svg id="Glyph" enable-background="new 0 0 64 64" height="512" viewBox="0 0 64 64" width="512" xmlns="http://www.w3.org/2000/svg"><g fill="rgb(0,0,0)"><path d="m55.087 26.305 3.913 4.695 2-5-4.246-5.945.213-.797-1.933-.516-4.069 15.258h-6.965v-7.236l-2.105-4.211-1.789.895 1.894 3.788v6.764h-5v-14h8l8-8-3-3-7 6h-9l-4 9-4-9h-2c-3.314 0-6 2.686-6 6v13h-4.965l-4.069-15.258-1.933.516.213.797-4.246 5.945 2 5 3.913-4.695 2.052 7.695h-7.965v14h3l2 13h13v-13h4v13h14v-13h4v13h13l2-13h3v-14h-7.965zm-20.087 14.695c0 1.657-1.343 3-3 3s-3-1.343-3-3 1.343-3 3-3 3 1.343 3 3zm-6-14h2v2h-2zm-7 7v-14h2v14z"/><circle cx="30" cy="9" r="6"/></g></svg>